<svg width="25" height="24" viewBox="0 0 25 24" fill="none" xmlns="http://www.w3.org/2000/svg">
<mask id="mask0_1_4404" style="mask-type:alpha" maskUnits="userSpaceOnUse" x="0" y="0" width="25" height="24">
<rect x="0.0700684" width="24" height="24" fill="#D9D9D9"/>
</mask>
<g mask="url(#mask0_1_4404)">
<path d="M21.07 20.2884V5.05768C21.07 4.96793 21.0412 4.8942 20.9835 4.8365C20.9258 4.7788 20.852 4.74995 20.7623 4.74995H3.37774C3.28799 4.74995 3.21427 4.7788 3.15657 4.8365C3.09887 4.8942 3.07002 4.96793 3.07002 5.05768V12.75H1.57007V5.05768C1.57007 4.56056 1.74707 4.135 2.10107 3.781C2.45507 3.427 2.88063 3.25 3.37774 3.25H20.7623C21.2594 3.25 21.685 3.427 22.039 3.781C22.393 4.135 22.57 4.56056 22.57 5.05768V18.6057C22.57 19.0403 22.4254 19.4182 22.1363 19.7394C21.8472 20.0605 21.4918 20.2435 21.07 20.2884ZM9.07002 13.6923C8.10754 13.6923 7.28359 13.3496 6.59817 12.6642C5.91275 11.9787 5.57004 11.1548 5.57004 10.1923C5.57004 9.2298 5.91275 8.40585 6.59817 7.72045C7.28359 7.03503 8.10754 6.69232 9.07002 6.69232C10.0325 6.69232 10.8565 7.03503 11.5419 7.72045C12.2273 8.40585 12.57 9.2298 12.57 10.1923C12.57 11.1548 12.2273 11.9787 11.5419 12.6642C10.8565 13.3496 10.0325 13.6923 9.07002 13.6923ZM9.07002 12.1923C9.62002 12.1923 10.0909 11.9965 10.4825 11.6048C10.8742 11.2131 11.07 10.7423 11.07 10.1923C11.07 9.6423 10.8742 9.17147 10.4825 8.7798C10.0909 8.38813 9.62002 8.1923 9.07002 8.1923C8.52002 8.1923 8.04919 8.38813 7.65752 8.7798C7.26585 9.17147 7.07002 9.6423 7.07002 10.1923C7.07002 10.7423 7.26585 11.2131 7.65752 11.6048C8.04919 11.9965 8.52002 12.1923 9.07002 12.1923ZM1.57007 21.3076V19.0846C1.57007 18.5948 1.70307 18.1413 1.96907 17.724C2.2351 17.3067 2.59055 16.9859 3.03542 16.7615C4.02389 16.2769 5.021 15.9135 6.02677 15.6712C7.03254 15.4289 8.04695 15.3077 9.07002 15.3077C10.0931 15.3077 11.1075 15.4289 12.1133 15.6712C13.119 15.9135 14.1162 16.2769 15.1046 16.7615C15.5495 16.9859 15.9049 17.3067 16.1709 17.724C16.437 18.1413 16.57 18.5948 16.57 19.0846V21.3076H1.57007ZM3.07002 19.8077H15.07V19.0846C15.07 18.882 15.0114 18.6945 14.894 18.5221C14.7767 18.3496 14.6175 18.2089 14.4162 18.1C13.5546 17.6756 12.6762 17.3541 11.7807 17.1355C10.8853 16.9169 9.98172 16.8077 9.07002 16.8077C8.15832 16.8077 7.25475 16.9169 6.35932 17.1355C5.46389 17.3541 4.5854 17.6756 3.72387 18.1C3.52259 18.2089 3.36329 18.3496 3.24599 18.5221C3.12868 18.6945 3.07002 18.882 3.07002 19.0846V19.8077Z" fill="#1C1B1F"/>
</g>
</svg>
