<svg width="25" height="24" viewBox="0 0 25 24" fill="none" xmlns="http://www.w3.org/2000/svg">
<mask id="mask0_1_4419" style="mask-type:alpha" maskUnits="userSpaceOnUse" x="0" y="0" width="25" height="24">
<rect x="0.11377" width="24" height="24" fill="#D9D9D9"/>
</mask>
<g mask="url(#mask0_1_4419)">
<path d="M12.1137 11.6923C11.1513 11.6923 10.3273 11.3496 9.64189 10.6642C8.95648 9.97879 8.61377 9.15484 8.61377 8.19236C8.61377 7.22986 8.95648 6.40591 9.64189 5.72051C10.3273 5.03509 11.1513 4.69238 12.1137 4.69238C13.0762 4.69238 13.9002 5.03509 14.5856 5.72051C15.271 6.40591 15.6137 7.22986 15.6137 8.19236C15.6137 9.15484 15.271 9.97879 14.5856 10.6642C13.9002 11.3496 13.0762 11.6923 12.1137 11.6923ZM4.61377 19.3077V17.0846C4.61377 16.5949 4.74679 16.1414 5.01282 15.7241C5.27884 15.3068 5.63428 14.986 6.07914 14.7616C7.06761 14.277 8.06473 13.9135 9.07049 13.6712C10.0763 13.4289 11.0907 13.3078 12.1137 13.3078C13.1368 13.3078 14.1512 13.4289 15.157 13.6712C16.1628 13.9135 17.1599 14.277 18.1483 14.7616C18.5932 14.986 18.9487 15.3068 19.2147 15.7241C19.4807 16.1414 19.6137 16.5949 19.6137 17.0846V19.3077H4.61377ZM6.11374 17.8077H18.1137V17.0846C18.1137 16.8821 18.0551 16.6946 17.9378 16.5221C17.8205 16.3497 17.6612 16.209 17.4599 16.1C16.5984 15.6757 15.7199 15.3542 14.8244 15.1356C13.929 14.917 13.0254 14.8077 12.1137 14.8077C11.202 14.8077 10.2985 14.917 9.40304 15.1356C8.50761 15.3542 7.62913 15.6757 6.76759 16.1C6.56631 16.209 6.40702 16.3497 6.28972 16.5221C6.1724 16.6946 6.11374 16.8821 6.11374 17.0846V17.8077ZM12.1137 10.1924C12.6637 10.1924 13.1346 9.99653 13.5262 9.60486C13.9179 9.21319 14.1137 8.74236 14.1137 8.19236C14.1137 7.64236 13.9179 7.17153 13.5262 6.77986C13.1346 6.38819 12.6637 6.19236 12.1137 6.19236C11.5637 6.19236 11.0929 6.38819 10.7012 6.77986C10.3096 7.17153 10.1137 7.64236 10.1137 8.19236C10.1137 8.74236 10.3096 9.21319 10.7012 9.60486C11.0929 9.99653 11.5637 10.1924 12.1137 10.1924Z" fill="#1C1B1F"/>
</g>
</svg>
