<svg width="25" height="24" viewBox="0 0 25 24" fill="none" xmlns="http://www.w3.org/2000/svg">
<mask id="mask0_1_4412" style="mask-type:alpha" maskUnits="userSpaceOnUse" x="0" y="0" width="25" height="24">
<rect x="0.88623" width="24" height="24" fill="#D9D9D9"/>
</mask>
<g mask="url(#mask0_1_4412)">
<path d="M6.19393 21.5001C5.6888 21.5001 5.26123 21.3251 4.91123 20.9751C4.56123 20.6251 4.38623 20.1975 4.38623 19.6924V6.30784C4.38623 5.80271 4.56123 5.37514 4.91123 5.02514C5.26123 4.67514 5.6888 4.50014 6.19393 4.50014H7.57856V2.38477H9.11698V4.50014H16.6939V2.38477H18.1939V4.50014H19.5785C20.0836 4.50014 20.5112 4.67514 20.8612 5.02514C21.2112 5.37514 21.3862 5.80271 21.3862 6.30784V19.6924C21.3862 20.1975 21.2112 20.6251 20.8612 20.9751C20.5112 21.3251 20.0836 21.5001 19.5785 21.5001H6.19393ZM5.88621 19.6924C5.88621 19.7693 5.91826 19.8398 5.98236 19.904C6.04647 19.9681 6.117 20.0001 6.19393 20.0001H19.5785C19.6554 20.0001 19.7259 19.9681 19.7901 19.904C19.8542 19.8398 19.8862 19.7693 19.8862 19.6924V6.30784C19.8862 6.23091 19.8542 6.16038 19.7901 6.09627C19.7259 6.03217 19.6554 6.00012 19.5785 6.00012H6.19393C6.117 6.00012 6.04647 6.03217 5.98236 6.09627C5.91826 6.16038 5.88621 6.23091 5.88621 6.30784V19.6924ZM10.1939 20.0001V17.9982L8.31698 15.7924C8.15288 15.6219 8.00801 15.3975 7.88238 15.1193C7.75675 14.8411 7.69393 14.5193 7.69393 14.154C7.69393 13.9501 7.71476 13.752 7.75643 13.5597C7.7981 13.3674 7.86572 13.1809 7.95931 13.0001C7.87597 12.8296 7.81091 12.6482 7.76411 12.4559C7.71732 12.2636 7.69393 12.0604 7.69393 11.8463C7.69393 11.4809 7.75675 11.1591 7.88238 10.8809C8.00801 10.6027 8.15288 10.3783 8.31698 10.2078L10.1939 8.00207V6.00012H11.3862V8.17127C11.3862 8.2546 11.3279 8.41293 11.2112 8.64627L9.21121 10.9963C9.09454 11.1296 9.01121 11.2671 8.96121 11.4088C8.91121 11.5504 8.88621 11.6963 8.88621 11.8463C8.88621 12.1796 8.99454 12.4671 9.21121 12.7088C9.42787 12.9504 9.70287 13.0713 10.0362 13.0713C10.1862 13.0713 10.3263 13.0463 10.4564 12.9963C10.5865 12.9463 10.7048 12.8629 10.8112 12.7463C11.0945 12.4629 11.4154 12.2463 11.7737 12.0963C12.132 11.9463 12.5029 11.8713 12.8862 11.8713C13.2695 11.8713 13.6404 11.9463 13.9987 12.0963C14.357 12.2463 14.6779 12.4629 14.9612 12.7463C15.0779 12.8629 15.2029 12.9463 15.3362 12.9963C15.4695 13.0463 15.6029 13.0713 15.7362 13.0713C16.0695 13.0713 16.3445 12.9504 16.5612 12.7088C16.7779 12.4671 16.8862 12.1879 16.8862 11.8713C16.8862 11.7213 16.857 11.5754 16.7987 11.4338C16.7404 11.2921 16.6612 11.1546 16.5612 11.0213L14.5612 8.64627C14.4945 8.5796 14.4487 8.5046 14.4237 8.42127C14.3987 8.33793 14.3862 8.2546 14.3862 8.17127V6.00012H15.5785V8.01167L17.4708 10.2482C17.6785 10.4828 17.8317 10.7383 17.9304 11.0146C18.0291 11.2908 18.0785 11.5764 18.0785 11.8713C18.0785 12.0751 18.0525 12.2732 18.0006 12.4655C17.9487 12.6578 17.8811 12.836 17.7977 13.0001C17.8913 13.1809 17.9615 13.3674 18.0083 13.5597C18.0551 13.752 18.0785 13.9501 18.0785 14.154C18.0785 14.5193 18.0157 14.8411 17.89 15.1193C17.7644 15.3975 17.6195 15.6219 17.4554 15.7924L15.5785 17.9982V20.0001H14.3862V17.829C14.3862 17.729 14.4445 17.5706 14.5612 17.354L16.5612 15.004C16.6907 14.8514 16.7804 14.6857 16.8304 14.5068C16.8804 14.328 16.8894 14.1507 16.8574 13.9751C16.6868 14.0713 16.5115 14.1434 16.3314 14.1914C16.1513 14.2395 15.9612 14.2636 15.7612 14.2636C15.4663 14.2636 15.1731 14.2049 14.8814 14.0876C14.5897 13.9703 14.3317 13.7943 14.1074 13.5597C13.9587 13.3943 13.7776 13.2703 13.5641 13.1876C13.3506 13.1049 13.1247 13.0636 12.8862 13.0636C12.6644 13.0636 12.4452 13.1049 12.2285 13.1876C12.0118 13.2703 11.824 13.3943 11.665 13.5597C11.4471 13.7943 11.1932 13.9703 10.9035 14.0876C10.6138 14.2049 10.3214 14.2636 10.0266 14.2636C9.82658 14.2636 9.63396 14.2395 9.44871 14.1914C9.26346 14.1434 9.08557 14.0713 8.91506 13.9751C8.88301 14.1507 8.89198 14.328 8.94198 14.5068C8.99198 14.6857 9.08172 14.8514 9.21121 15.004L11.2112 17.354C11.2612 17.4373 11.3029 17.5165 11.3362 17.5915C11.3695 17.6665 11.3862 17.7456 11.3862 17.829V20.0001H10.1939ZM5.88621 19.6924V20.0001V6.00012V19.6924Z" fill="#1C1B1F"/>
</g>
</svg>
